<?xml version="1.0" encoding="UTF-8" standalone="no"?>
<svg
   xmlns:dc="http://purl.org/dc/elements/1.1/"
   xmlns:cc="http://creativecommons.org/ns#"
   xmlns:rdf="http://www.w3.org/1999/02/22-rdf-syntax-ns#"
   xmlns:svg="http://www.w3.org/2000/svg"
   xmlns="http://www.w3.org/2000/svg"
   xmlns:sodipodi="http://sodipodi.sourceforge.net/DTD/sodipodi-0.dtd"
   xmlns:inkscape="http://www.inkscape.org/namespaces/inkscape"
   version="1.0"
   width="1280.000000pt"
   height="822.000000pt"
   viewBox="0 0 1280.000000 822.000000"
   preserveAspectRatio="xMidYMid meet"
   id="svg8"
   sodipodi:docname="rain.svg"
   inkscape:version="0.92.5 (2060ec1f9f, 2020-04-08)">
  <defs
     id="defs12" />
  <sodipodi:namedview
     pagecolor="#ffffff"
     bordercolor="#666666"
     borderopacity="1"
     objecttolerance="10"
     gridtolerance="10"
     guidetolerance="10"
     inkscape:pageopacity="0"
     inkscape:pageshadow="2"
     inkscape:window-width="1588"
     inkscape:window-height="1126"
     id="namedview10"
     showgrid="false"
     inkscape:pagecheckerboard="true"
     inkscape:zoom="0.53861649"
     inkscape:cx="853.33333"
     inkscape:cy="-243.42428"
     inkscape:window-x="1200"
     inkscape:window-y="125"
     inkscape:window-maximized="0"
     inkscape:current-layer="layer1" />
  <metadata
     id="metadata2">
Created by potrace 1.15, written by Peter Selinger 2001-2017
<rdf:RDF>
  <cc:Work
     rdf:about="">
    <dc:format>image/svg+xml</dc:format>
    <dc:type
       rdf:resource="http://purl.org/dc/dcmitype/StillImage" />
    <dc:title></dc:title>
  </cc:Work>
</rdf:RDF>
</metadata>
  <g
     transform="translate(0.000000,822.000000) scale(0.100000,-0.100000)"
     fill="#ffffff"
     stroke="none"
     id="g6">
    <path
       d="M7121 8205 c-484 -56 -926 -221 -1315 -494 -238 -166 -476 -397 -637 -618 -23 -32 -44 -60 -45 -62 -2 -2 -40 8 -84 23 -117 38 -260 73 -385 92 -150 23 -442 23 -590 0 -611 -94 -1127 -423 -1468 -934 -235 -353 -362 -809 -344 -1229 l6 -132 -32 -5 c-18 -3 -72 -10 -122 -16 -413 -50 -861 -242 -1201 -515 -434 -349 -738 -846 -852 -1395 -38 -183 -47 -272 -46 -495 0 -243 14 -368 63 -571 221 -899 936 -1599 1835 -1794 268 -58 -2 -55 4336 -55 3806 0 4011 1 4125 18 649 97 1197 373 1635 824 142 145 217 237 324 396 233 346 381 728 448 1162 18 116 22 183 22 395 0 282 -16 420 -74 657 -180 738 -643 1363 -1298 1752 -333 198 -715 326 -1104 371 -117 14 -118 14 -118 89 0 95 -59 403 -107 556 -75 243 -205 524 -331 715 -452 687 -1140 1129 -1947 1250 -185 28 -520 35 -694 15z"
       id="path4" />
  </g>
  <g
     inkscape:groupmode="layer"
     id="layer1"
     inkscape:label="drops"
     style="display:none">
    <g
       id="g848">
      <circle
         r="47.261539"
         cy="932.27692"
         cx="385.96927"
         id="path822"
         style="opacity:1;fill:#ffffff;fill-opacity:1;fill-rule:nonzero;stroke:#ffffff;stroke-width:1.34078741;stroke-linecap:round;stroke-linejoin:round;stroke-miterlimit:4;stroke-dasharray:none;stroke-dashoffset:0;stroke-opacity:1" />
      <circle
         r="47.261539"
         cy="1050.4308"
         cx="622.27692"
         id="path822-3"
         style="opacity:1;fill:#ffffff;fill-opacity:1;fill-rule:nonzero;stroke:#ffffff;stroke-width:1.34078741;stroke-linecap:round;stroke-linejoin:round;stroke-miterlimit:4;stroke-dasharray:none;stroke-dashoffset:0;stroke-opacity:1" />
      <circle
         r="47.261539"
         cy="936.21539"
         cx="858.58459"
         id="path822-6"
         style="opacity:1;fill:#ffffff;fill-opacity:1;fill-rule:nonzero;stroke:#ffffff;stroke-width:1.34078741;stroke-linecap:round;stroke-linejoin:round;stroke-miterlimit:4;stroke-dasharray:none;stroke-dashoffset:0;stroke-opacity:1" />
    </g>
  </g>
  <g
     inkscape:groupmode="layer"
     id="layer2"
     inkscape:label="rain"
     style="display:none">
    <g
       id="g876">
      <path
         sodipodi:nodetypes="cc"
         inkscape:connector-curvature="0"
         id="path850"
         d="M 385.96924,937.13001 C 259.93847,1173.4377 259.93847,1173.4377 259.93847,1173.4377"
         style="fill:none;fill-rule:evenodd;stroke:#ffffff;stroke-width:101.40000153;stroke-linecap:round;stroke-linejoin:miter;stroke-miterlimit:4;stroke-dasharray:none;stroke-opacity:1" />
      <path
         sodipodi:nodetypes="cc"
         inkscape:connector-curvature="0"
         id="path850-7"
         d="M 614.42813,939.17131 C 488.39737,1175.479 488.39737,1175.479 488.39737,1175.479"
         style="fill:none;fill-rule:evenodd;stroke:#ffffff;stroke-width:101.40000153;stroke-linecap:round;stroke-linejoin:miter;stroke-miterlimit:4;stroke-dasharray:none;stroke-opacity:1" />
      <path
         sodipodi:nodetypes="cc"
         inkscape:connector-curvature="0"
         id="path850-5"
         d="M 852.53819,941.95622 C 726.50743,1178.2639 726.50743,1178.2639 726.50743,1178.2639"
         style="fill:none;fill-rule:evenodd;stroke:#ffffff;stroke-width:101.40000153;stroke-linecap:round;stroke-linejoin:miter;stroke-miterlimit:4;stroke-dasharray:none;stroke-opacity:1" />
    </g>
  </g>
  <g
     inkscape:groupmode="layer"
     id="layer3"
     inkscape:label="heavy rain"
     style="display:inline">
    <g
       id="g929">
      <path
         sodipodi:nodetypes="cc"
         inkscape:connector-curvature="0"
         id="path850-56"
         d="M 385.96924,937.13001 168.03634,1336.3551"
         style="fill:none;fill-rule:evenodd;stroke:#ffffff;stroke-width:101.40000153;stroke-linecap:round;stroke-linejoin:miter;stroke-miterlimit:4;stroke-dasharray:none;stroke-opacity:1" />
      <path
         sodipodi:nodetypes="cc"
         inkscape:connector-curvature="0"
         id="path850-56-1"
         d="M 852.53819,941.95622 634.60527,1341.1813"
         style="fill:none;fill-rule:evenodd;stroke:#ffffff;stroke-width:101.40000153;stroke-linecap:round;stroke-linejoin:miter;stroke-miterlimit:4;stroke-dasharray:none;stroke-opacity:1" />
      <path
         sodipodi:nodetypes="cc"
         inkscape:connector-curvature="0"
         id="path850-56-2"
         d="M 614.42813,939.17131 396.49524,1338.3964"
         style="fill:none;fill-rule:evenodd;stroke:#ffffff;stroke-width:101.40000153;stroke-linecap:round;stroke-linejoin:miter;stroke-miterlimit:4;stroke-dasharray:none;stroke-opacity:1" />
    </g>
  </g>
</svg>
